<svg width="190" height="206" viewBox="0 0 190 206" fill="none" xmlns="http://www.w3.org/2000/svg">
<path fill-rule="evenodd" clip-rule="evenodd" d="M6.4555 3.22775C6.4555 5.01108 5.01108 6.4555 3.22775 6.4555C1.44442 6.4555 0 5.01108 0 3.22775C0 1.44442 1.44442 0 3.22775 0C5.01108 0 6.4555 1.44442 6.4555 3.22775Z" fill="#258AFF"/>
<path fill-rule="evenodd" clip-rule="evenodd" d="M6.4555 19.3664C6.4555 21.1498 5.01108 22.5942 3.22775 22.5942C1.44442 22.5942 0 21.1498 0 19.3664C0 17.5831 1.44442 16.1387 3.22775 16.1387C5.01108 16.1387 6.4555 17.5831 6.4555 19.3664Z" fill="#258AFF"/>
<path fill-rule="evenodd" clip-rule="evenodd" d="M23.6703 19.3664C23.6703 21.1498 22.2259 22.5942 20.4426 22.5942C18.6593 22.5942 17.2148 21.1498 17.2148 19.3664C17.2148 17.5831 18.6593 16.1387 20.4426 16.1387C22.2259 16.1387 23.6703 17.5831 23.6703 19.3664Z" fill="#258AFF"/>
<path fill-rule="evenodd" clip-rule="evenodd" d="M39.809 19.3664C39.809 21.1498 38.3646 22.5942 36.5813 22.5942C34.7979 22.5942 33.3535 21.1498 33.3535 19.3664C33.3535 17.5831 34.7979 16.1387 36.5813 16.1387C38.3646 16.1387 39.809 17.5831 39.809 19.3664Z" fill="#258AFF"/>
<path fill-rule="evenodd" clip-rule="evenodd" d="M55.9477 19.3664C55.9477 21.1498 54.5033 22.5942 52.7199 22.5942C50.9366 22.5942 49.4922 21.1498 49.4922 19.3664C49.4922 17.5831 50.9366 16.1387 52.7199 16.1387C54.5033 16.1387 55.9477 17.5831 55.9477 19.3664Z" fill="#258AFF"/>
<path fill-rule="evenodd" clip-rule="evenodd" d="M73.1625 19.3664C73.1625 21.1498 71.7181 22.5942 69.9348 22.5942C68.1514 22.5942 66.707 21.1498 66.707 19.3664C66.707 17.5831 68.1514 16.1387 69.9348 16.1387C71.7181 16.1387 73.1625 17.5831 73.1625 19.3664Z" fill="#258AFF"/>
<path fill-rule="evenodd" clip-rule="evenodd" d="M89.3012 19.3664C89.3012 21.1498 87.8568 22.5942 86.0735 22.5942C84.2901 22.5942 82.8457 21.1498 82.8457 19.3664C82.8457 17.5831 84.2901 16.1387 86.0735 16.1387C87.8568 16.1387 89.3012 17.5831 89.3012 19.3664Z" fill="#258AFF"/>
<path fill-rule="evenodd" clip-rule="evenodd" d="M106.516 19.3664C106.516 21.1498 105.072 22.5942 103.288 22.5942C101.505 22.5942 100.061 21.1498 100.061 19.3664C100.061 17.5831 101.505 16.1387 103.288 16.1387C105.072 16.1387 106.516 17.5831 106.516 19.3664Z" fill="#258AFF"/>
<path fill-rule="evenodd" clip-rule="evenodd" d="M122.655 19.3664C122.655 21.1498 121.21 22.5942 119.427 22.5942C117.644 22.5942 116.199 21.1498 116.199 19.3664C116.199 17.5831 117.644 16.1387 119.427 16.1387C121.21 16.1387 122.655 17.5831 122.655 19.3664Z" fill="#258AFF"/>
<path fill-rule="evenodd" clip-rule="evenodd" d="M139.87 19.3664C139.87 21.1498 138.425 22.5942 136.642 22.5942C134.858 22.5942 133.414 21.1498 133.414 19.3664C133.414 17.5831 134.858 16.1387 136.642 16.1387C138.425 16.1387 139.87 17.5831 139.87 19.3664Z" fill="#258AFF"/>
<path fill-rule="evenodd" clip-rule="evenodd" d="M156.008 19.3664C156.008 21.1498 154.564 22.5942 152.78 22.5942C150.997 22.5942 149.553 21.1498 149.553 19.3664C149.553 17.5831 150.997 16.1387 152.78 16.1387C154.564 16.1387 156.008 17.5831 156.008 19.3664Z" fill="#258AFF"/>
<path fill-rule="evenodd" clip-rule="evenodd" d="M172.147 19.3664C172.147 21.1498 170.702 22.5942 168.919 22.5942C167.136 22.5942 165.691 21.1498 165.691 19.3664C165.691 17.5831 167.136 16.1387 168.919 16.1387C170.702 16.1387 172.147 17.5831 172.147 19.3664Z" fill="#258AFF"/>
<path fill-rule="evenodd" clip-rule="evenodd" d="M189.362 19.3664C189.362 21.1498 187.917 22.5942 186.134 22.5942C184.351 22.5942 182.906 21.1498 182.906 19.3664C182.906 17.5831 184.351 16.1387 186.134 16.1387C187.917 16.1387 189.362 17.5831 189.362 19.3664Z" fill="#258AFF"/>
<path fill-rule="evenodd" clip-rule="evenodd" d="M6.4555 36.5813C6.4555 38.3646 5.01108 39.809 3.22775 39.809C1.44442 39.809 0 38.3646 0 36.5813C0 34.7979 1.44442 33.3535 3.22775 33.3535C5.01108 33.3535 6.4555 34.7979 6.4555 36.5813Z" fill="#258AFF"/>
<path fill-rule="evenodd" clip-rule="evenodd" d="M23.6703 36.5813C23.6703 38.3646 22.2259 39.809 20.4426 39.809C18.6593 39.809 17.2148 38.3646 17.2148 36.5813C17.2148 34.7979 18.6593 33.3535 20.4426 33.3535C22.2259 33.3535 23.6703 34.7979 23.6703 36.5813Z" fill="#258AFF"/>
<path fill-rule="evenodd" clip-rule="evenodd" d="M39.809 36.5813C39.809 38.3646 38.3646 39.809 36.5813 39.809C34.7979 39.809 33.3535 38.3646 33.3535 36.5813C33.3535 34.7979 34.7979 33.3535 36.5813 33.3535C38.3646 33.3535 39.809 34.7979 39.809 36.5813Z" fill="#258AFF"/>
<path fill-rule="evenodd" clip-rule="evenodd" d="M55.9477 36.5813C55.9477 38.3646 54.5033 39.809 52.7199 39.809C50.9366 39.809 49.4922 38.3646 49.4922 36.5813C49.4922 34.7979 50.9366 33.3535 52.7199 33.3535C54.5033 33.3535 55.9477 34.7979 55.9477 36.5813Z" fill="#258AFF"/>
<path fill-rule="evenodd" clip-rule="evenodd" d="M73.1625 36.5813C73.1625 38.3646 71.7181 39.809 69.9348 39.809C68.1514 39.809 66.707 38.3646 66.707 36.5813C66.707 34.7979 68.1514 33.3535 69.9348 33.3535C71.7181 33.3535 73.1625 34.7979 73.1625 36.5813Z" fill="#258AFF"/>
<path fill-rule="evenodd" clip-rule="evenodd" d="M89.3012 36.5813C89.3012 38.3646 87.8568 39.809 86.0735 39.809C84.2901 39.809 82.8457 38.3646 82.8457 36.5813C82.8457 34.7979 84.2901 33.3535 86.0735 33.3535C87.8568 33.3535 89.3012 34.7979 89.3012 36.5813Z" fill="#258AFF"/>
<path fill-rule="evenodd" clip-rule="evenodd" d="M106.516 36.5813C106.516 38.3646 105.072 39.809 103.288 39.809C101.505 39.809 100.061 38.3646 100.061 36.5813C100.061 34.7979 101.505 33.3535 103.288 33.3535C105.072 33.3535 106.516 34.7979 106.516 36.5813Z" fill="#258AFF"/>
<path fill-rule="evenodd" clip-rule="evenodd" d="M122.655 36.5813C122.655 38.3646 121.21 39.809 119.427 39.809C117.644 39.809 116.199 38.3646 116.199 36.5813C116.199 34.7979 117.644 33.3535 119.427 33.3535C121.21 33.3535 122.655 34.7979 122.655 36.5813Z" fill="#258AFF"/>
<path fill-rule="evenodd" clip-rule="evenodd" d="M139.87 36.5813C139.87 38.3646 138.425 39.809 136.642 39.809C134.858 39.809 133.414 38.3646 133.414 36.5813C133.414 34.7979 134.858 33.3535 136.642 33.3535C138.425 33.3535 139.87 34.7979 139.87 36.5813Z" fill="#258AFF"/>
<path fill-rule="evenodd" clip-rule="evenodd" d="M156.008 36.5813C156.008 38.3646 154.564 39.809 152.78 39.809C150.997 39.809 149.553 38.3646 149.553 36.5813C149.553 34.7979 150.997 33.3535 152.78 33.3535C154.564 33.3535 156.008 34.7979 156.008 36.5813Z" fill="#258AFF"/>
<path fill-rule="evenodd" clip-rule="evenodd" d="M172.147 36.5813C172.147 38.3646 170.702 39.809 168.919 39.809C167.136 39.809 165.691 38.3646 165.691 36.5813C165.691 34.7979 167.136 33.3535 168.919 33.3535C170.702 33.3535 172.147 34.7979 172.147 36.5813Z" fill="#258AFF"/>
<path fill-rule="evenodd" clip-rule="evenodd" d="M189.362 36.5813C189.362 38.3646 187.917 39.809 186.134 39.809C184.351 39.809 182.906 38.3646 182.906 36.5813C182.906 34.7979 184.351 33.3535 186.134 33.3535C187.917 33.3535 189.362 34.7979 189.362 36.5813Z" fill="#258AFF"/>
<path fill-rule="evenodd" clip-rule="evenodd" d="M6.4555 52.7199C6.4555 54.5033 5.01108 55.9477 3.22775 55.9477C1.44442 55.9477 0 54.5033 0 52.7199C0 50.9366 1.44442 49.4922 3.22775 49.4922C5.01108 49.4922 6.4555 50.9366 6.4555 52.7199Z" fill="#258AFF"/>
<path fill-rule="evenodd" clip-rule="evenodd" d="M23.6703 52.7199C23.6703 54.5033 22.2259 55.9477 20.4426 55.9477C18.6593 55.9477 17.2148 54.5033 17.2148 52.7199C17.2148 50.9366 18.6593 49.4922 20.4426 49.4922C22.2259 49.4922 23.6703 50.9366 23.6703 52.7199Z" fill="#258AFF"/>
<path fill-rule="evenodd" clip-rule="evenodd" d="M39.809 52.7199C39.809 54.5033 38.3646 55.9477 36.5813 55.9477C34.7979 55.9477 33.3535 54.5033 33.3535 52.7199C33.3535 50.9366 34.7979 49.4922 36.5813 49.4922C38.3646 49.4922 39.809 50.9366 39.809 52.7199Z" fill="#258AFF"/>
<path fill-rule="evenodd" clip-rule="evenodd" d="M55.9477 52.7199C55.9477 54.5033 54.5033 55.9477 52.7199 55.9477C50.9366 55.9477 49.4922 54.5033 49.4922 52.7199C49.4922 50.9366 50.9366 49.4922 52.7199 49.4922C54.5033 49.4922 55.9477 50.9366 55.9477 52.7199Z" fill="#258AFF"/>
<path fill-rule="evenodd" clip-rule="evenodd" d="M73.1625 52.7199C73.1625 54.5033 71.7181 55.9477 69.9348 55.9477C68.1514 55.9477 66.707 54.5033 66.707 52.7199C66.707 50.9366 68.1514 49.4922 69.9348 49.4922C71.7181 49.4922 73.1625 50.9366 73.1625 52.7199Z" fill="#258AFF"/>
<path fill-rule="evenodd" clip-rule="evenodd" d="M89.3012 52.7199C89.3012 54.5033 87.8568 55.9477 86.0735 55.9477C84.2901 55.9477 82.8457 54.5033 82.8457 52.7199C82.8457 50.9366 84.2901 49.4922 86.0735 49.4922C87.8568 49.4922 89.3012 50.9366 89.3012 52.7199Z" fill="#258AFF"/>
<path fill-rule="evenodd" clip-rule="evenodd" d="M106.516 52.7199C106.516 54.5033 105.072 55.9477 103.288 55.9477C101.505 55.9477 100.061 54.5033 100.061 52.7199C100.061 50.9366 101.505 49.4922 103.288 49.4922C105.072 49.4922 106.516 50.9366 106.516 52.7199Z" fill="#258AFF"/>
<path fill-rule="evenodd" clip-rule="evenodd" d="M122.655 52.7199C122.655 54.5033 121.21 55.9477 119.427 55.9477C117.644 55.9477 116.199 54.5033 116.199 52.7199C116.199 50.9366 117.644 49.4922 119.427 49.4922C121.21 49.4922 122.655 50.9366 122.655 52.7199Z" fill="#258AFF"/>
<path fill-rule="evenodd" clip-rule="evenodd" d="M139.87 52.7199C139.87 54.5033 138.425 55.9477 136.642 55.9477C134.858 55.9477 133.414 54.5033 133.414 52.7199C133.414 50.9366 134.858 49.4922 136.642 49.4922C138.425 49.4922 139.87 50.9366 139.87 52.7199Z" fill="#258AFF"/>
<path fill-rule="evenodd" clip-rule="evenodd" d="M156.008 52.7199C156.008 54.5033 154.564 55.9477 152.78 55.9477C150.997 55.9477 149.553 54.5033 149.553 52.7199C149.553 50.9366 150.997 49.4922 152.78 49.4922C154.564 49.4922 156.008 50.9366 156.008 52.7199Z" fill="#258AFF"/>
<path fill-rule="evenodd" clip-rule="evenodd" d="M172.147 52.7199C172.147 54.5033 170.702 55.9477 168.919 55.9477C167.136 55.9477 165.691 54.5033 165.691 52.7199C165.691 50.9366 167.136 49.4922 168.919 49.4922C170.702 49.4922 172.147 50.9366 172.147 52.7199Z" fill="#258AFF"/>
<path fill-rule="evenodd" clip-rule="evenodd" d="M189.362 52.7199C189.362 54.5033 187.917 55.9477 186.134 55.9477C184.351 55.9477 182.906 54.5033 182.906 52.7199C182.906 50.9366 184.351 49.4922 186.134 49.4922C187.917 49.4922 189.362 50.9366 189.362 52.7199Z" fill="#258AFF"/>
<path fill-rule="evenodd" clip-rule="evenodd" d="M6.4555 69.9345C6.4555 71.7179 5.01108 73.1623 3.22775 73.1623C1.44442 73.1623 0 71.7179 0 69.9345C0 68.1512 1.44442 66.7068 3.22775 66.7068C5.01108 66.7068 6.4555 68.1512 6.4555 69.9345Z" fill="#258AFF"/>
<path fill-rule="evenodd" clip-rule="evenodd" d="M23.6703 69.9345C23.6703 71.7179 22.2259 73.1623 20.4426 73.1623C18.6593 73.1623 17.2148 71.7179 17.2148 69.9345C17.2148 68.1512 18.6593 66.7068 20.4426 66.7068C22.2259 66.7068 23.6703 68.1512 23.6703 69.9345Z" fill="#258AFF"/>
<path fill-rule="evenodd" clip-rule="evenodd" d="M39.809 69.9345C39.809 71.7179 38.3646 73.1623 36.5813 73.1623C34.7979 73.1623 33.3535 71.7179 33.3535 69.9345C33.3535 68.1512 34.7979 66.7068 36.5813 66.7068C38.3646 66.7068 39.809 68.1512 39.809 69.9345Z" fill="#258AFF"/>
<path fill-rule="evenodd" clip-rule="evenodd" d="M55.9477 69.9345C55.9477 71.7179 54.5033 73.1623 52.7199 73.1623C50.9366 73.1623 49.4922 71.7179 49.4922 69.9345C49.4922 68.1512 50.9366 66.7068 52.7199 66.7068C54.5033 66.7068 55.9477 68.1512 55.9477 69.9345Z" fill="#258AFF"/>
<path fill-rule="evenodd" clip-rule="evenodd" d="M73.1625 69.9345C73.1625 71.7179 71.7181 73.1623 69.9348 73.1623C68.1514 73.1623 66.707 71.7179 66.707 69.9345C66.707 68.1512 68.1514 66.7068 69.9348 66.7068C71.7181 66.7068 73.1625 68.1512 73.1625 69.9345Z" fill="#258AFF"/>
<path fill-rule="evenodd" clip-rule="evenodd" d="M89.3012 69.9345C89.3012 71.7179 87.8568 73.1623 86.0735 73.1623C84.2901 73.1623 82.8457 71.7179 82.8457 69.9345C82.8457 68.1512 84.2901 66.7068 86.0735 66.7068C87.8568 66.7068 89.3012 68.1512 89.3012 69.9345Z" fill="#258AFF"/>
<path fill-rule="evenodd" clip-rule="evenodd" d="M106.516 69.9345C106.516 71.7179 105.072 73.1623 103.288 73.1623C101.505 73.1623 100.061 71.7179 100.061 69.9345C100.061 68.1512 101.505 66.7068 103.288 66.7068C105.072 66.7068 106.516 68.1512 106.516 69.9345Z" fill="#258AFF"/>
<path fill-rule="evenodd" clip-rule="evenodd" d="M122.655 69.9345C122.655 71.7179 121.21 73.1623 119.427 73.1623C117.644 73.1623 116.199 71.7179 116.199 69.9345C116.199 68.1512 117.644 66.7068 119.427 66.7068C121.21 66.7068 122.655 68.1512 122.655 69.9345Z" fill="#258AFF"/>
<path fill-rule="evenodd" clip-rule="evenodd" d="M139.87 69.9345C139.87 71.7179 138.425 73.1623 136.642 73.1623C134.858 73.1623 133.414 71.7179 133.414 69.9345C133.414 68.1512 134.858 66.7068 136.642 66.7068C138.425 66.7068 139.87 68.1512 139.87 69.9345Z" fill="#258AFF"/>
<path fill-rule="evenodd" clip-rule="evenodd" d="M156.008 69.9345C156.008 71.7179 154.564 73.1623 152.78 73.1623C150.997 73.1623 149.553 71.7179 149.553 69.9345C149.553 68.1512 150.997 66.7068 152.78 66.7068C154.564 66.7068 156.008 68.1512 156.008 69.9345Z" fill="#258AFF"/>
<path fill-rule="evenodd" clip-rule="evenodd" d="M172.147 69.9345C172.147 71.7179 170.702 73.1623 168.919 73.1623C167.136 73.1623 165.691 71.7179 165.691 69.9345C165.691 68.1512 167.136 66.7068 168.919 66.7068C170.702 66.7068 172.147 68.1512 172.147 69.9345Z" fill="#258AFF"/>
<path fill-rule="evenodd" clip-rule="evenodd" d="M189.362 69.9345C189.362 71.7179 187.917 73.1623 186.134 73.1623C184.351 73.1623 182.906 71.7179 182.906 69.9345C182.906 68.1512 184.351 66.7068 186.134 66.7068C187.917 66.7068 189.362 68.1512 189.362 69.9345Z" fill="#258AFF"/>
<path fill-rule="evenodd" clip-rule="evenodd" d="M6.4555 86.0732C6.4555 87.8565 5.01108 89.301 3.22775 89.301C1.44442 89.301 0 87.8565 0 86.0732C0 84.2899 1.44442 82.8455 3.22775 82.8455C5.01108 82.8455 6.4555 84.2899 6.4555 86.0732Z" fill="#258AFF"/>
<path fill-rule="evenodd" clip-rule="evenodd" d="M23.6703 86.0732C23.6703 87.8565 22.2259 89.301 20.4426 89.301C18.6593 89.301 17.2148 87.8565 17.2148 86.0732C17.2148 84.2899 18.6593 82.8455 20.4426 82.8455C22.2259 82.8455 23.6703 84.2899 23.6703 86.0732Z" fill="#258AFF"/>
<path fill-rule="evenodd" clip-rule="evenodd" d="M39.809 86.0732C39.809 87.8565 38.3646 89.301 36.5813 89.301C34.7979 89.301 33.3535 87.8565 33.3535 86.0732C33.3535 84.2899 34.7979 82.8455 36.5813 82.8455C38.3646 82.8455 39.809 84.2899 39.809 86.0732Z" fill="#258AFF"/>
<path fill-rule="evenodd" clip-rule="evenodd" d="M55.9477 86.0732C55.9477 87.8565 54.5033 89.301 52.7199 89.301C50.9366 89.301 49.4922 87.8565 49.4922 86.0732C49.4922 84.2899 50.9366 82.8455 52.7199 82.8455C54.5033 82.8455 55.9477 84.2899 55.9477 86.0732Z" fill="#258AFF"/>
<path fill-rule="evenodd" clip-rule="evenodd" d="M73.1625 86.0732C73.1625 87.8565 71.7181 89.301 69.9348 89.301C68.1514 89.301 66.707 87.8565 66.707 86.0732C66.707 84.2899 68.1514 82.8455 69.9348 82.8455C71.7181 82.8455 73.1625 84.2899 73.1625 86.0732Z" fill="#258AFF"/>
<path fill-rule="evenodd" clip-rule="evenodd" d="M89.3012 86.0732C89.3012 87.8565 87.8568 89.301 86.0735 89.301C84.2901 89.301 82.8457 87.8565 82.8457 86.0732C82.8457 84.2899 84.2901 82.8455 86.0735 82.8455C87.8568 82.8455 89.3012 84.2899 89.3012 86.0732Z" fill="#258AFF"/>
<path fill-rule="evenodd" clip-rule="evenodd" d="M106.516 86.0732C106.516 87.8565 105.072 89.301 103.288 89.301C101.505 89.301 100.061 87.8565 100.061 86.0732C100.061 84.2899 101.505 82.8455 103.288 82.8455C105.072 82.8455 106.516 84.2899 106.516 86.0732Z" fill="#258AFF"/>
<path fill-rule="evenodd" clip-rule="evenodd" d="M122.655 86.0732C122.655 87.8565 121.21 89.301 119.427 89.301C117.644 89.301 116.199 87.8565 116.199 86.0732C116.199 84.2899 117.644 82.8455 119.427 82.8455C121.21 82.8455 122.655 84.2899 122.655 86.0732Z" fill="#258AFF"/>
<path fill-rule="evenodd" clip-rule="evenodd" d="M139.87 86.0732C139.87 87.8565 138.425 89.301 136.642 89.301C134.858 89.301 133.414 87.8565 133.414 86.0732C133.414 84.2899 134.858 82.8455 136.642 82.8455C138.425 82.8455 139.87 84.2899 139.87 86.0732Z" fill="#258AFF"/>
<path fill-rule="evenodd" clip-rule="evenodd" d="M156.008 86.0732C156.008 87.8565 154.564 89.301 152.78 89.301C150.997 89.301 149.553 87.8565 149.553 86.0732C149.553 84.2899 150.997 82.8455 152.78 82.8455C154.564 82.8455 156.008 84.2899 156.008 86.0732Z" fill="#258AFF"/>
<path fill-rule="evenodd" clip-rule="evenodd" d="M172.147 86.0732C172.147 87.8565 170.702 89.301 168.919 89.301C167.136 89.301 165.691 87.8565 165.691 86.0732C165.691 84.2899 167.136 82.8455 168.919 82.8455C170.702 82.8455 172.147 84.2899 172.147 86.0732Z" fill="#258AFF"/>
<path fill-rule="evenodd" clip-rule="evenodd" d="M189.362 86.0732C189.362 87.8565 187.917 89.301 186.134 89.301C184.351 89.301 182.906 87.8565 182.906 86.0732C182.906 84.2899 184.351 82.8455 186.134 82.8455C187.917 82.8455 189.362 84.2899 189.362 86.0732Z" fill="#258AFF"/>
<path fill-rule="evenodd" clip-rule="evenodd" d="M6.4555 103.288C6.4555 105.071 5.01108 106.516 3.22775 106.516C1.44442 106.516 0 105.071 0 103.288C0 101.505 1.44442 100.06 3.22775 100.06C5.01108 100.06 6.4555 101.505 6.4555 103.288Z" fill="#258AFF"/>
<path fill-rule="evenodd" clip-rule="evenodd" d="M23.6703 103.288C23.6703 105.071 22.2259 106.516 20.4426 106.516C18.6593 106.516 17.2148 105.071 17.2148 103.288C17.2148 101.505 18.6593 100.06 20.4426 100.06C22.2259 100.06 23.6703 101.505 23.6703 103.288Z" fill="#258AFF"/>
<path fill-rule="evenodd" clip-rule="evenodd" d="M39.809 103.288C39.809 105.071 38.3646 106.516 36.5813 106.516C34.7979 106.516 33.3535 105.071 33.3535 103.288C33.3535 101.505 34.7979 100.06 36.5813 100.06C38.3646 100.06 39.809 101.505 39.809 103.288Z" fill="#258AFF"/>
<path fill-rule="evenodd" clip-rule="evenodd" d="M55.9477 103.288C55.9477 105.071 54.5033 106.516 52.7199 106.516C50.9366 106.516 49.4922 105.071 49.4922 103.288C49.4922 101.505 50.9366 100.06 52.7199 100.06C54.5033 100.06 55.9477 101.505 55.9477 103.288Z" fill="#258AFF"/>
<path fill-rule="evenodd" clip-rule="evenodd" d="M73.1625 103.288C73.1625 105.071 71.7181 106.516 69.9348 106.516C68.1514 106.516 66.707 105.071 66.707 103.288C66.707 101.505 68.1514 100.06 69.9348 100.06C71.7181 100.06 73.1625 101.505 73.1625 103.288Z" fill="#258AFF"/>
<path fill-rule="evenodd" clip-rule="evenodd" d="M89.3012 103.288C89.3012 105.071 87.8568 106.516 86.0735 106.516C84.2901 106.516 82.8457 105.071 82.8457 103.288C82.8457 101.505 84.2901 100.06 86.0735 100.06C87.8568 100.06 89.3012 101.505 89.3012 103.288Z" fill="#258AFF"/>
<path fill-rule="evenodd" clip-rule="evenodd" d="M106.516 103.288C106.516 105.071 105.072 106.516 103.288 106.516C101.505 106.516 100.061 105.071 100.061 103.288C100.061 101.505 101.505 100.06 103.288 100.06C105.072 100.06 106.516 101.505 106.516 103.288Z" fill="#258AFF"/>
<path fill-rule="evenodd" clip-rule="evenodd" d="M122.655 103.288C122.655 105.071 121.21 106.516 119.427 106.516C117.644 106.516 116.199 105.071 116.199 103.288C116.199 101.505 117.644 100.06 119.427 100.06C121.21 100.06 122.655 101.505 122.655 103.288Z" fill="#258AFF"/>
<path fill-rule="evenodd" clip-rule="evenodd" d="M139.87 103.288C139.87 105.071 138.425 106.516 136.642 106.516C134.858 106.516 133.414 105.071 133.414 103.288C133.414 101.505 134.858 100.06 136.642 100.06C138.425 100.06 139.87 101.505 139.87 103.288Z" fill="#258AFF"/>
<path fill-rule="evenodd" clip-rule="evenodd" d="M156.008 103.288C156.008 105.071 154.564 106.516 152.78 106.516C150.997 106.516 149.553 105.071 149.553 103.288C149.553 101.505 150.997 100.06 152.78 100.06C154.564 100.06 156.008 101.505 156.008 103.288Z" fill="#258AFF"/>
<path fill-rule="evenodd" clip-rule="evenodd" d="M172.147 103.288C172.147 105.071 170.702 106.516 168.919 106.516C167.136 106.516 165.691 105.071 165.691 103.288C165.691 101.505 167.136 100.06 168.919 100.06C170.702 100.06 172.147 101.505 172.147 103.288Z" fill="#258AFF"/>
<path fill-rule="evenodd" clip-rule="evenodd" d="M189.362 103.288C189.362 105.071 187.917 106.516 186.134 106.516C184.351 106.516 182.906 105.071 182.906 103.288C182.906 101.505 184.351 100.06 186.134 100.06C187.917 100.06 189.362 101.505 189.362 103.288Z" fill="#258AFF"/>
<path fill-rule="evenodd" clip-rule="evenodd" d="M6.4555 119.427C6.4555 121.21 5.01108 122.654 3.22775 122.654C1.44442 122.654 0 121.21 0 119.427C0 117.643 1.44442 116.199 3.22775 116.199C5.01108 116.199 6.4555 117.643 6.4555 119.427Z" fill="#258AFF"/>
<path fill-rule="evenodd" clip-rule="evenodd" d="M23.6703 119.427C23.6703 121.21 22.2259 122.654 20.4426 122.654C18.6593 122.654 17.2148 121.21 17.2148 119.427C17.2148 117.643 18.6593 116.199 20.4426 116.199C22.2259 116.199 23.6703 117.643 23.6703 119.427Z" fill="#258AFF"/>
<path fill-rule="evenodd" clip-rule="evenodd" d="M39.809 119.427C39.809 121.21 38.3646 122.654 36.5813 122.654C34.7979 122.654 33.3535 121.21 33.3535 119.427C33.3535 117.643 34.7979 116.199 36.5813 116.199C38.3646 116.199 39.809 117.643 39.809 119.427Z" fill="#258AFF"/>
<path fill-rule="evenodd" clip-rule="evenodd" d="M55.9477 119.427C55.9477 121.21 54.5033 122.654 52.7199 122.654C50.9366 122.654 49.4922 121.21 49.4922 119.427C49.4922 117.643 50.9366 116.199 52.7199 116.199C54.5033 116.199 55.9477 117.643 55.9477 119.427Z" fill="#258AFF"/>
<path fill-rule="evenodd" clip-rule="evenodd" d="M73.1625 119.427C73.1625 121.21 71.7181 122.654 69.9348 122.654C68.1514 122.654 66.707 121.21 66.707 119.427C66.707 117.643 68.1514 116.199 69.9348 116.199C71.7181 116.199 73.1625 117.643 73.1625 119.427Z" fill="#258AFF"/>
<path fill-rule="evenodd" clip-rule="evenodd" d="M89.3012 119.427C89.3012 121.21 87.8568 122.654 86.0735 122.654C84.2901 122.654 82.8457 121.21 82.8457 119.427C82.8457 117.643 84.2901 116.199 86.0735 116.199C87.8568 116.199 89.3012 117.643 89.3012 119.427Z" fill="#258AFF"/>
<path fill-rule="evenodd" clip-rule="evenodd" d="M106.516 119.427C106.516 121.21 105.072 122.654 103.288 122.654C101.505 122.654 100.061 121.21 100.061 119.427C100.061 117.643 101.505 116.199 103.288 116.199C105.072 116.199 106.516 117.643 106.516 119.427Z" fill="#258AFF"/>
<path fill-rule="evenodd" clip-rule="evenodd" d="M122.655 119.427C122.655 121.21 121.21 122.654 119.427 122.654C117.644 122.654 116.199 121.21 116.199 119.427C116.199 117.643 117.644 116.199 119.427 116.199C121.21 116.199 122.655 117.643 122.655 119.427Z" fill="#258AFF"/>
<path fill-rule="evenodd" clip-rule="evenodd" d="M139.87 119.427C139.87 121.21 138.425 122.654 136.642 122.654C134.858 122.654 133.414 121.21 133.414 119.427C133.414 117.643 134.858 116.199 136.642 116.199C138.425 116.199 139.87 117.643 139.87 119.427Z" fill="#258AFF"/>
<path fill-rule="evenodd" clip-rule="evenodd" d="M156.008 119.427C156.008 121.21 154.564 122.654 152.78 122.654C150.997 122.654 149.553 121.21 149.553 119.427C149.553 117.643 150.997 116.199 152.78 116.199C154.564 116.199 156.008 117.643 156.008 119.427Z" fill="#258AFF"/>
<path fill-rule="evenodd" clip-rule="evenodd" d="M172.147 119.427C172.147 121.21 170.702 122.654 168.919 122.654C167.136 122.654 165.691 121.21 165.691 119.427C165.691 117.643 167.136 116.199 168.919 116.199C170.702 116.199 172.147 117.643 172.147 119.427Z" fill="#258AFF"/>
<path fill-rule="evenodd" clip-rule="evenodd" d="M189.362 119.427C189.362 121.21 187.917 122.654 186.134 122.654C184.351 122.654 182.906 121.21 182.906 119.427C182.906 117.643 184.351 116.199 186.134 116.199C187.917 116.199 189.362 117.643 189.362 119.427Z" fill="#258AFF"/>
<path fill-rule="evenodd" clip-rule="evenodd" d="M6.4555 135.565C6.4555 137.349 5.01108 138.793 3.22775 138.793C1.44442 138.793 0 137.349 0 135.565C0 133.782 1.44442 132.338 3.22775 132.338C5.01108 132.338 6.4555 133.782 6.4555 135.565Z" fill="#258AFF"/>
<path fill-rule="evenodd" clip-rule="evenodd" d="M23.6703 135.565C23.6703 137.349 22.2259 138.793 20.4426 138.793C18.6593 138.793 17.2148 137.349 17.2148 135.565C17.2148 133.782 18.6593 132.338 20.4426 132.338C22.2259 132.338 23.6703 133.782 23.6703 135.565Z" fill="#258AFF"/>
<path fill-rule="evenodd" clip-rule="evenodd" d="M39.809 135.565C39.809 137.349 38.3646 138.793 36.5813 138.793C34.7979 138.793 33.3535 137.349 33.3535 135.565C33.3535 133.782 34.7979 132.338 36.5813 132.338C38.3646 132.338 39.809 133.782 39.809 135.565Z" fill="#258AFF"/>
<path fill-rule="evenodd" clip-rule="evenodd" d="M55.9477 135.565C55.9477 137.349 54.5033 138.793 52.7199 138.793C50.9366 138.793 49.4922 137.349 49.4922 135.565C49.4922 133.782 50.9366 132.338 52.7199 132.338C54.5033 132.338 55.9477 133.782 55.9477 135.565Z" fill="#258AFF"/>
<path fill-rule="evenodd" clip-rule="evenodd" d="M73.1625 135.565C73.1625 137.349 71.7181 138.793 69.9348 138.793C68.1514 138.793 66.707 137.349 66.707 135.565C66.707 133.782 68.1514 132.338 69.9348 132.338C71.7181 132.338 73.1625 133.782 73.1625 135.565Z" fill="#258AFF"/>
<path fill-rule="evenodd" clip-rule="evenodd" d="M89.3012 135.565C89.3012 137.349 87.8568 138.793 86.0735 138.793C84.2901 138.793 82.8457 137.349 82.8457 135.565C82.8457 133.782 84.2901 132.338 86.0735 132.338C87.8568 132.338 89.3012 133.782 89.3012 135.565Z" fill="#258AFF"/>
<path fill-rule="evenodd" clip-rule="evenodd" d="M106.516 135.565C106.516 137.349 105.072 138.793 103.288 138.793C101.505 138.793 100.061 137.349 100.061 135.565C100.061 133.782 101.505 132.338 103.288 132.338C105.072 132.338 106.516 133.782 106.516 135.565Z" fill="#258AFF"/>
<path fill-rule="evenodd" clip-rule="evenodd" d="M122.655 135.565C122.655 137.349 121.21 138.793 119.427 138.793C117.644 138.793 116.199 137.349 116.199 135.565C116.199 133.782 117.644 132.338 119.427 132.338C121.21 132.338 122.655 133.782 122.655 135.565Z" fill="#258AFF"/>
<path fill-rule="evenodd" clip-rule="evenodd" d="M139.87 135.565C139.87 137.349 138.425 138.793 136.642 138.793C134.858 138.793 133.414 137.349 133.414 135.565C133.414 133.782 134.858 132.338 136.642 132.338C138.425 132.338 139.87 133.782 139.87 135.565Z" fill="#258AFF"/>
<path fill-rule="evenodd" clip-rule="evenodd" d="M156.008 135.565C156.008 137.349 154.564 138.793 152.78 138.793C150.997 138.793 149.553 137.349 149.553 135.565C149.553 133.782 150.997 132.338 152.78 132.338C154.564 132.338 156.008 133.782 156.008 135.565Z" fill="#258AFF"/>
<path fill-rule="evenodd" clip-rule="evenodd" d="M172.147 135.565C172.147 137.349 170.702 138.793 168.919 138.793C167.136 138.793 165.691 137.349 165.691 135.565C165.691 133.782 167.136 132.338 168.919 132.338C170.702 132.338 172.147 133.782 172.147 135.565Z" fill="#258AFF"/>
<path fill-rule="evenodd" clip-rule="evenodd" d="M189.362 135.565C189.362 137.349 187.917 138.793 186.134 138.793C184.351 138.793 182.906 137.349 182.906 135.565C182.906 133.782 184.351 132.338 186.134 132.338C187.917 132.338 189.362 133.782 189.362 135.565Z" fill="#258AFF"/>
<path fill-rule="evenodd" clip-rule="evenodd" d="M6.4555 152.78C6.4555 154.563 5.01108 156.008 3.22775 156.008C1.44442 156.008 0 154.563 0 152.78C0 150.997 1.44442 149.552 3.22775 149.552C5.01108 149.552 6.4555 150.997 6.4555 152.78Z" fill="#258AFF"/>
<path fill-rule="evenodd" clip-rule="evenodd" d="M23.6703 152.78C23.6703 154.563 22.2259 156.008 20.4426 156.008C18.6593 156.008 17.2148 154.563 17.2148 152.78C17.2148 150.997 18.6593 149.552 20.4426 149.552C22.2259 149.552 23.6703 150.997 23.6703 152.78Z" fill="#258AFF"/>
<path fill-rule="evenodd" clip-rule="evenodd" d="M39.809 152.78C39.809 154.563 38.3646 156.008 36.5813 156.008C34.7979 156.008 33.3535 154.563 33.3535 152.78C33.3535 150.997 34.7979 149.552 36.5813 149.552C38.3646 149.552 39.809 150.997 39.809 152.78Z" fill="#258AFF"/>
<path fill-rule="evenodd" clip-rule="evenodd" d="M55.9477 152.78C55.9477 154.563 54.5033 156.008 52.7199 156.008C50.9366 156.008 49.4922 154.563 49.4922 152.78C49.4922 150.997 50.9366 149.552 52.7199 149.552C54.5033 149.552 55.9477 150.997 55.9477 152.78Z" fill="#258AFF"/>
<path fill-rule="evenodd" clip-rule="evenodd" d="M73.1625 152.78C73.1625 154.563 71.7181 156.008 69.9348 156.008C68.1514 156.008 66.707 154.563 66.707 152.78C66.707 150.997 68.1514 149.552 69.9348 149.552C71.7181 149.552 73.1625 150.997 73.1625 152.78Z" fill="#258AFF"/>
<path fill-rule="evenodd" clip-rule="evenodd" d="M89.3012 152.78C89.3012 154.563 87.8568 156.008 86.0735 156.008C84.2901 156.008 82.8457 154.563 82.8457 152.78C82.8457 150.997 84.2901 149.552 86.0735 149.552C87.8568 149.552 89.3012 150.997 89.3012 152.78Z" fill="#258AFF"/>
<path fill-rule="evenodd" clip-rule="evenodd" d="M106.516 152.78C106.516 154.563 105.072 156.008 103.288 156.008C101.505 156.008 100.061 154.563 100.061 152.78C100.061 150.997 101.505 149.552 103.288 149.552C105.072 149.552 106.516 150.997 106.516 152.78Z" fill="#258AFF"/>
<path fill-rule="evenodd" clip-rule="evenodd" d="M122.655 152.78C122.655 154.563 121.21 156.008 119.427 156.008C117.644 156.008 116.199 154.563 116.199 152.78C116.199 150.997 117.644 149.552 119.427 149.552C121.21 149.552 122.655 150.997 122.655 152.78Z" fill="#258AFF"/>
<path fill-rule="evenodd" clip-rule="evenodd" d="M139.87 152.78C139.87 154.563 138.425 156.008 136.642 156.008C134.858 156.008 133.414 154.563 133.414 152.78C133.414 150.997 134.858 149.552 136.642 149.552C138.425 149.552 139.87 150.997 139.87 152.78Z" fill="#258AFF"/>
<path fill-rule="evenodd" clip-rule="evenodd" d="M156.008 152.78C156.008 154.563 154.564 156.008 152.78 156.008C150.997 156.008 149.553 154.563 149.553 152.78C149.553 150.997 150.997 149.552 152.78 149.552C154.564 149.552 156.008 150.997 156.008 152.78Z" fill="#258AFF"/>
<path fill-rule="evenodd" clip-rule="evenodd" d="M172.147 152.78C172.147 154.563 170.702 156.008 168.919 156.008C167.136 156.008 165.691 154.563 165.691 152.78C165.691 150.997 167.136 149.552 168.919 149.552C170.702 149.552 172.147 150.997 172.147 152.78Z" fill="#258AFF"/>
<path fill-rule="evenodd" clip-rule="evenodd" d="M189.362 152.78C189.362 154.563 187.917 156.008 186.134 156.008C184.351 156.008 182.906 154.563 182.906 152.78C182.906 150.997 184.351 149.552 186.134 149.552C187.917 149.552 189.362 150.997 189.362 152.78Z" fill="#258AFF"/>
<path fill-rule="evenodd" clip-rule="evenodd" d="M6.4555 168.919C6.4555 170.702 5.01108 172.147 3.22775 172.147C1.44442 172.147 0 170.702 0 168.919C0 167.136 1.44442 165.691 3.22775 165.691C5.01108 165.691 6.4555 167.136 6.4555 168.919Z" fill="#258AFF"/>
<path fill-rule="evenodd" clip-rule="evenodd" d="M23.6703 168.919C23.6703 170.702 22.2259 172.147 20.4426 172.147C18.6593 172.147 17.2148 170.702 17.2148 168.919C17.2148 167.136 18.6593 165.691 20.4426 165.691C22.2259 165.691 23.6703 167.136 23.6703 168.919Z" fill="#258AFF"/>
<path fill-rule="evenodd" clip-rule="evenodd" d="M39.809 168.919C39.809 170.702 38.3646 172.147 36.5813 172.147C34.7979 172.147 33.3535 170.702 33.3535 168.919C33.3535 167.136 34.7979 165.691 36.5813 165.691C38.3646 165.691 39.809 167.136 39.809 168.919Z" fill="#258AFF"/>
<path fill-rule="evenodd" clip-rule="evenodd" d="M55.9477 168.919C55.9477 170.702 54.5033 172.147 52.7199 172.147C50.9366 172.147 49.4922 170.702 49.4922 168.919C49.4922 167.136 50.9366 165.691 52.7199 165.691C54.5033 165.691 55.9477 167.136 55.9477 168.919Z" fill="#258AFF"/>
<path fill-rule="evenodd" clip-rule="evenodd" d="M73.1625 168.919C73.1625 170.702 71.7181 172.147 69.9348 172.147C68.1514 172.147 66.707 170.702 66.707 168.919C66.707 167.136 68.1514 165.691 69.9348 165.691C71.7181 165.691 73.1625 167.136 73.1625 168.919Z" fill="#258AFF"/>
<path fill-rule="evenodd" clip-rule="evenodd" d="M89.3012 168.919C89.3012 170.702 87.8568 172.147 86.0735 172.147C84.2901 172.147 82.8457 170.702 82.8457 168.919C82.8457 167.136 84.2901 165.691 86.0735 165.691C87.8568 165.691 89.3012 167.136 89.3012 168.919Z" fill="#258AFF"/>
<path fill-rule="evenodd" clip-rule="evenodd" d="M106.516 168.919C106.516 170.702 105.072 172.147 103.288 172.147C101.505 172.147 100.061 170.702 100.061 168.919C100.061 167.136 101.505 165.691 103.288 165.691C105.072 165.691 106.516 167.136 106.516 168.919Z" fill="#258AFF"/>
<path fill-rule="evenodd" clip-rule="evenodd" d="M122.655 168.919C122.655 170.702 121.21 172.147 119.427 172.147C117.644 172.147 116.199 170.702 116.199 168.919C116.199 167.136 117.644 165.691 119.427 165.691C121.21 165.691 122.655 167.136 122.655 168.919Z" fill="#258AFF"/>
<path fill-rule="evenodd" clip-rule="evenodd" d="M139.87 168.919C139.87 170.702 138.425 172.147 136.642 172.147C134.858 172.147 133.414 170.702 133.414 168.919C133.414 167.136 134.858 165.691 136.642 165.691C138.425 165.691 139.87 167.136 139.87 168.919Z" fill="#258AFF"/>
<path fill-rule="evenodd" clip-rule="evenodd" d="M156.008 168.919C156.008 170.702 154.564 172.147 152.78 172.147C150.997 172.147 149.553 170.702 149.553 168.919C149.553 167.136 150.997 165.691 152.78 165.691C154.564 165.691 156.008 167.136 156.008 168.919Z" fill="#258AFF"/>
<path fill-rule="evenodd" clip-rule="evenodd" d="M172.147 168.919C172.147 170.702 170.702 172.147 168.919 172.147C167.136 172.147 165.691 170.702 165.691 168.919C165.691 167.136 167.136 165.691 168.919 165.691C170.702 165.691 172.147 167.136 172.147 168.919Z" fill="#258AFF"/>
<path fill-rule="evenodd" clip-rule="evenodd" d="M189.362 168.919C189.362 170.702 187.917 172.147 186.134 172.147C184.351 172.147 182.906 170.702 182.906 168.919C182.906 167.136 184.351 165.691 186.134 165.691C187.917 165.691 189.362 167.136 189.362 168.919Z" fill="#258AFF"/>
<path fill-rule="evenodd" clip-rule="evenodd" d="M6.4555 186.134C6.4555 187.917 5.01108 189.361 3.22775 189.361C1.44442 189.361 0 187.917 0 186.134C0 184.35 1.44442 182.906 3.22775 182.906C5.01108 182.906 6.4555 184.35 6.4555 186.134Z" fill="#258AFF"/>
<path fill-rule="evenodd" clip-rule="evenodd" d="M23.6703 186.134C23.6703 187.917 22.2259 189.361 20.4426 189.361C18.6593 189.361 17.2148 187.917 17.2148 186.134C17.2148 184.35 18.6593 182.906 20.4426 182.906C22.2259 182.906 23.6703 184.35 23.6703 186.134Z" fill="#258AFF"/>
<path fill-rule="evenodd" clip-rule="evenodd" d="M39.809 186.134C39.809 187.917 38.3646 189.361 36.5813 189.361C34.7979 189.361 33.3535 187.917 33.3535 186.134C33.3535 184.35 34.7979 182.906 36.5813 182.906C38.3646 182.906 39.809 184.35 39.809 186.134Z" fill="#258AFF"/>
<path fill-rule="evenodd" clip-rule="evenodd" d="M55.9477 186.134C55.9477 187.917 54.5033 189.361 52.7199 189.361C50.9366 189.361 49.4922 187.917 49.4922 186.134C49.4922 184.35 50.9366 182.906 52.7199 182.906C54.5033 182.906 55.9477 184.35 55.9477 186.134Z" fill="#258AFF"/>
<path fill-rule="evenodd" clip-rule="evenodd" d="M73.1625 186.134C73.1625 187.917 71.7181 189.361 69.9348 189.361C68.1514 189.361 66.707 187.917 66.707 186.134C66.707 184.35 68.1514 182.906 69.9348 182.906C71.7181 182.906 73.1625 184.35 73.1625 186.134Z" fill="#258AFF"/>
<path fill-rule="evenodd" clip-rule="evenodd" d="M89.3012 186.134C89.3012 187.917 87.8568 189.361 86.0735 189.361C84.2901 189.361 82.8457 187.917 82.8457 186.134C82.8457 184.35 84.2901 182.906 86.0735 182.906C87.8568 182.906 89.3012 184.35 89.3012 186.134Z" fill="#258AFF"/>
<path fill-rule="evenodd" clip-rule="evenodd" d="M106.516 186.134C106.516 187.917 105.072 189.361 103.288 189.361C101.505 189.361 100.061 187.917 100.061 186.134C100.061 184.35 101.505 182.906 103.288 182.906C105.072 182.906 106.516 184.35 106.516 186.134Z" fill="#258AFF"/>
<path fill-rule="evenodd" clip-rule="evenodd" d="M122.655 186.134C122.655 187.917 121.21 189.361 119.427 189.361C117.644 189.361 116.199 187.917 116.199 186.134C116.199 184.35 117.644 182.906 119.427 182.906C121.21 182.906 122.655 184.35 122.655 186.134Z" fill="#258AFF"/>
<path fill-rule="evenodd" clip-rule="evenodd" d="M139.87 186.134C139.87 187.917 138.425 189.361 136.642 189.361C134.858 189.361 133.414 187.917 133.414 186.134C133.414 184.35 134.858 182.906 136.642 182.906C138.425 182.906 139.87 184.35 139.87 186.134Z" fill="#258AFF"/>
<path fill-rule="evenodd" clip-rule="evenodd" d="M156.008 186.134C156.008 187.917 154.564 189.361 152.78 189.361C150.997 189.361 149.553 187.917 149.553 186.134C149.553 184.35 150.997 182.906 152.78 182.906C154.564 182.906 156.008 184.35 156.008 186.134Z" fill="#258AFF"/>
<path fill-rule="evenodd" clip-rule="evenodd" d="M172.147 186.134C172.147 187.917 170.702 189.361 168.919 189.361C167.136 189.361 165.691 187.917 165.691 186.134C165.691 184.35 167.136 182.906 168.919 182.906C170.702 182.906 172.147 184.35 172.147 186.134Z" fill="#258AFF"/>
<path fill-rule="evenodd" clip-rule="evenodd" d="M189.362 186.134C189.362 187.917 187.917 189.361 186.134 189.361C184.351 189.361 182.906 187.917 182.906 186.134C182.906 184.35 184.351 182.906 186.134 182.906C187.917 182.906 189.362 184.35 189.362 186.134Z" fill="#258AFF"/>
<path fill-rule="evenodd" clip-rule="evenodd" d="M6.4555 202.272C6.4555 204.056 5.01108 205.5 3.22775 205.5C1.44442 205.5 0 204.056 0 202.272C0 200.489 1.44442 199.044 3.22775 199.044C5.01108 199.044 6.4555 200.489 6.4555 202.272Z" fill="#258AFF"/>
<path fill-rule="evenodd" clip-rule="evenodd" d="M23.6703 202.272C23.6703 204.056 22.2259 205.5 20.4426 205.5C18.6593 205.5 17.2148 204.056 17.2148 202.272C17.2148 200.489 18.6593 199.044 20.4426 199.044C22.2259 199.044 23.6703 200.489 23.6703 202.272Z" fill="#258AFF"/>
<path fill-rule="evenodd" clip-rule="evenodd" d="M39.809 202.272C39.809 204.056 38.3646 205.5 36.5813 205.5C34.7979 205.5 33.3535 204.056 33.3535 202.272C33.3535 200.489 34.7979 199.044 36.5813 199.044C38.3646 199.044 39.809 200.489 39.809 202.272Z" fill="#258AFF"/>
<path fill-rule="evenodd" clip-rule="evenodd" d="M55.9477 202.272C55.9477 204.056 54.5033 205.5 52.7199 205.5C50.9366 205.5 49.4922 204.056 49.4922 202.272C49.4922 200.489 50.9366 199.044 52.7199 199.044C54.5033 199.044 55.9477 200.489 55.9477 202.272Z" fill="#258AFF"/>
<path fill-rule="evenodd" clip-rule="evenodd" d="M73.1625 202.272C73.1625 204.056 71.7181 205.5 69.9348 205.5C68.1514 205.5 66.707 204.056 66.707 202.272C66.707 200.489 68.1514 199.044 69.9348 199.044C71.7181 199.044 73.1625 200.489 73.1625 202.272Z" fill="#258AFF"/>
<path fill-rule="evenodd" clip-rule="evenodd" d="M89.3012 202.272C89.3012 204.056 87.8568 205.5 86.0735 205.5C84.2901 205.5 82.8457 204.056 82.8457 202.272C82.8457 200.489 84.2901 199.044 86.0735 199.044C87.8568 199.044 89.3012 200.489 89.3012 202.272Z" fill="#258AFF"/>
<path fill-rule="evenodd" clip-rule="evenodd" d="M106.516 202.272C106.516 204.056 105.072 205.5 103.288 205.5C101.505 205.5 100.061 204.056 100.061 202.272C100.061 200.489 101.505 199.044 103.288 199.044C105.072 199.044 106.516 200.489 106.516 202.272Z" fill="#258AFF"/>
<path fill-rule="evenodd" clip-rule="evenodd" d="M122.655 202.272C122.655 204.056 121.21 205.5 119.427 205.5C117.644 205.5 116.199 204.056 116.199 202.272C116.199 200.489 117.644 199.044 119.427 199.044C121.21 199.044 122.655 200.489 122.655 202.272Z" fill="#258AFF"/>
<path fill-rule="evenodd" clip-rule="evenodd" d="M139.87 202.272C139.87 204.056 138.425 205.5 136.642 205.5C134.858 205.5 133.414 204.056 133.414 202.272C133.414 200.489 134.858 199.044 136.642 199.044C138.425 199.044 139.87 200.489 139.87 202.272Z" fill="#258AFF"/>
<path fill-rule="evenodd" clip-rule="evenodd" d="M156.008 202.272C156.008 204.056 154.564 205.5 152.78 205.5C150.997 205.5 149.553 204.056 149.553 202.272C149.553 200.489 150.997 199.044 152.78 199.044C154.564 199.044 156.008 200.489 156.008 202.272Z" fill="#258AFF"/>
<path fill-rule="evenodd" clip-rule="evenodd" d="M172.147 202.272C172.147 204.056 170.702 205.5 168.919 205.5C167.136 205.5 165.691 204.056 165.691 202.272C165.691 200.489 167.136 199.044 168.919 199.044C170.702 199.044 172.147 200.489 172.147 202.272Z" fill="#258AFF"/>
<path fill-rule="evenodd" clip-rule="evenodd" d="M189.362 202.272C189.362 204.056 187.917 205.5 186.134 205.5C184.351 205.5 182.906 204.056 182.906 202.272C182.906 200.489 184.351 199.044 186.134 199.044C187.917 199.044 189.362 200.489 189.362 202.272Z" fill="#258AFF"/>
<path fill-rule="evenodd" clip-rule="evenodd" d="M23.6703 3.22775C23.6703 5.01108 22.2259 6.4555 20.4426 6.4555C18.6593 6.4555 17.2148 5.01108 17.2148 3.22775C17.2148 1.44442 18.6593 0 20.4426 0C22.2259 0 23.6703 1.44442 23.6703 3.22775Z" fill="#258AFF"/>
<path fill-rule="evenodd" clip-rule="evenodd" d="M39.809 3.22775C39.809 5.01108 38.3646 6.4555 36.5813 6.4555C34.7979 6.4555 33.3535 5.01108 33.3535 3.22775C33.3535 1.44442 34.7979 0 36.5813 0C38.3646 0 39.809 1.44442 39.809 3.22775Z" fill="#258AFF"/>
<path fill-rule="evenodd" clip-rule="evenodd" d="M55.9477 3.22775C55.9477 5.01108 54.5033 6.4555 52.7199 6.4555C50.9366 6.4555 49.4922 5.01108 49.4922 3.22775C49.4922 1.44442 50.9366 0 52.7199 0C54.5033 0 55.9477 1.44442 55.9477 3.22775Z" fill="#258AFF"/>
<path fill-rule="evenodd" clip-rule="evenodd" d="M73.1625 3.22775C73.1625 5.01108 71.7181 6.4555 69.9348 6.4555C68.1514 6.4555 66.707 5.01108 66.707 3.22775C66.707 1.44442 68.1514 0 69.9348 0C71.7181 0 73.1625 1.44442 73.1625 3.22775Z" fill="#258AFF"/>
<path fill-rule="evenodd" clip-rule="evenodd" d="M89.3012 3.22775C89.3012 5.01108 87.8568 6.4555 86.0735 6.4555C84.2901 6.4555 82.8457 5.01108 82.8457 3.22775C82.8457 1.44442 84.2901 0 86.0735 0C87.8568 0 89.3012 1.44442 89.3012 3.22775Z" fill="#258AFF"/>
<path fill-rule="evenodd" clip-rule="evenodd" d="M106.516 3.22775C106.516 5.01108 105.072 6.4555 103.288 6.4555C101.505 6.4555 100.061 5.01108 100.061 3.22775C100.061 1.44442 101.505 0 103.288 0C105.072 0 106.516 1.44442 106.516 3.22775Z" fill="#258AFF"/>
<path fill-rule="evenodd" clip-rule="evenodd" d="M122.655 3.22775C122.655 5.01108 121.21 6.4555 119.427 6.4555C117.644 6.4555 116.199 5.01108 116.199 3.22775C116.199 1.44442 117.644 0 119.427 0C121.21 0 122.655 1.44442 122.655 3.22775Z" fill="#258AFF"/>
<path fill-rule="evenodd" clip-rule="evenodd" d="M139.87 3.22775C139.87 5.01108 138.425 6.4555 136.642 6.4555C134.858 6.4555 133.414 5.01108 133.414 3.22775C133.414 1.44442 134.858 0 136.642 0C138.425 0 139.87 1.44442 139.87 3.22775Z" fill="#258AFF"/>
<path fill-rule="evenodd" clip-rule="evenodd" d="M156.008 3.22775C156.008 5.01108 154.564 6.4555 152.78 6.4555C150.997 6.4555 149.553 5.01108 149.553 3.22775C149.553 1.44442 150.997 0 152.78 0C154.564 0 156.008 1.44442 156.008 3.22775Z" fill="#258AFF"/>
<path fill-rule="evenodd" clip-rule="evenodd" d="M172.147 3.22775C172.147 5.01108 170.702 6.4555 168.919 6.4555C167.136 6.4555 165.691 5.01108 165.691 3.22775C165.691 1.44442 167.136 0 168.919 0C170.702 0 172.147 1.44442 172.147 3.22775Z" fill="#258AFF"/>
<path fill-rule="evenodd" clip-rule="evenodd" d="M189.362 3.22775C189.362 5.01108 187.917 6.4555 186.134 6.4555C184.351 6.4555 182.906 5.01108 182.906 3.22775C182.906 1.44442 184.351 0 186.134 0C187.917 0 189.362 1.44442 189.362 3.22775Z" fill="#258AFF"/>
</svg>
